<?xml version="1.0" encoding="iso-8859-1"?>
<!-- Generator: Adobe Illustrator 19.0.0, SVG Export Plug-In . SVG Version: 6.00 Build 0)  -->
<svg version="1.1" id="Capa_1" xmlns="http://www.w3.org/2000/svg" xmlns:xlink="http://www.w3.org/1999/xlink" x="0px" y="0px"
	 viewBox="0 0 512 512" style="enable-background:new 0 0 512 512;" xml:space="preserve">
<path style="fill:#F7CF9C;" d="M193.203,468.429V43.638c0-19.839,16.232-36.071,36.071-36.071H101.418
	c-19.839,0-36.071,16.232-36.071,36.071v424.791c0,19.839,16.232,36.07,36.071,36.07h127.857
	C209.435,504.501,193.203,488.269,193.203,468.429z"/>
<path style="fill:#EFBB81;" d="M95.344,468.429V43.638c0-19.839,16.232-36.071,36.071-36.071h-29.998
	c-19.839,0-36.071,16.232-36.071,36.071v424.791c0,19.839,16.232,36.07,36.071,36.07h29.998
	C111.576,504.501,95.344,488.269,95.344,468.429z"/>
<path style="fill:#EFEFEF;" d="M65.346,43.638v37.913h127.857V43.638c0-19.839,16.232-36.071,36.071-36.071H101.418
	C81.578,7.568,65.346,23.799,65.346,43.638z"/>
<path style="fill:#DDDDDD;" d="M65.346,81.552h29.998V43.638c0-19.839,16.232-36.071,36.071-36.071h-29.998
	c-19.771,0-36.071,16.153-36.071,36.071V81.552z"/>
<path style="fill:#EFEFEF;" d="M65.346,468.429v-37.913h127.857v37.913c0,19.839,16.232,36.07,36.071,36.07H101.418
	C81.578,504.501,65.346,488.269,65.346,468.429z"/>
<path style="fill:#DDDDDD;" d="M95.344,468.429v-37.913H65.346v37.913c0,19.818,16.21,36.07,36.071,36.07h29.998
	C111.576,504.501,95.344,488.269,95.344,468.429z"/>
<circle style="fill:#666666;" cx="107.232" cy="47.387" r="13.825"/>
<path style="fill:#535454;" d="M107.24,33.571c-2.352-0.003-4.736,0.581-6.919,1.842c-6.613,3.818-8.878,12.273-5.061,18.886
	c3.818,6.613,12.273,8.878,18.886,5.061c2.183-1.261,3.881-3.033,5.054-5.071C108.558,54.271,101.93,42.799,107.24,33.571z"/>
<path style="fill:#EFEFEF;" d="M411.846,504.501H228.275c-19.839,0-36.071-16.232-36.071-36.07V43.638
	c0-19.839,16.232-36.071,36.071-36.071h183.572c19.839,0,36.07,16.232,36.07,36.071v424.791
	C447.917,488.269,431.685,504.501,411.846,504.501z"/>
<path style="fill:#DDDDDD;" d="M213.952,468.429V43.638c0-19.839,16.232-36.071,36.071-36.071h-21.748
	c-19.839,0-36.071,16.232-36.071,36.071v424.791c0,19.839,16.232,36.07,36.071,36.07h21.748
	C230.183,504.501,213.952,488.269,213.952,468.429z"/>
<path style="fill:#A4D9F4;" d="M418.24,417.022H221.88c-4.315,0-7.812-3.498-7.812-7.812V95.363c0-4.315,3.498-7.812,7.812-7.812
	h196.36c4.315,0,7.812,3.498,7.812,7.812v313.847C426.052,413.525,422.555,417.022,418.24,417.022z"/>
<path style="fill:#7CC9E8;" d="M235.816,409.211V95.363c0-4.315,3.498-7.812,7.812-7.812H221.88c-4.315,0-7.812,3.498-7.812,7.812
	v313.847c0,4.315,3.498,7.812,7.812,7.812h21.748C239.314,417.022,235.816,413.525,235.816,409.211z"/>
<path style="fill:#70B5E8;" d="M214.068,95.363v23.648h211.985V95.363c0-4.315-3.498-7.812-7.812-7.812H221.88
	C217.565,87.552,214.068,91.05,214.068,95.363z"/>
<path style="fill:#52A5D8;" d="M214.068,95.363v23.648h21.748V95.363c0-4.315,3.498-7.812,7.812-7.812
	c-22.133,0.203-22.242-0.463-24.789,0.614C216.035,89.352,214.068,92.128,214.068,95.363z"/>
<path style="fill:#F94A46;" d="M259.228,311.824h-20.068c-1.84,0-3.345-1.505-3.345-3.345v-20.068c0-1.84,1.505-3.345,3.345-3.345
	h20.068c1.84,0,3.345,1.505,3.345,3.345v20.068C262.573,310.319,261.068,311.824,259.228,311.824z"/>
<path style="fill:#898989;" d="M306.472,311.824h-20.068c-1.84,0-3.345-1.505-3.345-3.345v-20.068c0-1.84,1.505-3.345,3.345-3.345
	h20.068c1.84,0,3.345,1.505,3.345,3.345v20.068C309.817,310.319,308.312,311.824,306.472,311.824z"/>
<path style="fill:#92B620;" d="M259.228,167.454h-20.068c-1.84,0-3.345-1.505-3.345-3.345v-20.068c0-1.84,1.505-3.345,3.345-3.345
	h20.068c1.84,0,3.345,1.505,3.345,3.345v20.068C262.573,165.949,261.068,167.454,259.228,167.454z"/>
<path style="fill:#F94A46;" d="M306.472,167.454h-20.068c-1.84,0-3.345-1.505-3.345-3.345v-20.068c0-1.84,1.505-3.345,3.345-3.345
	h20.068c1.84,0,3.345,1.505,3.345,3.345v20.068C309.817,165.949,308.312,167.454,306.472,167.454z"/>
<path style="fill:#FFB70D;" d="M353.716,167.454h-20.068c-1.84,0-3.345-1.505-3.345-3.345v-20.068c0-1.84,1.505-3.345,3.345-3.345
	h20.068c1.84,0,3.345,1.505,3.345,3.345v20.068C357.06,165.949,355.555,167.454,353.716,167.454z"/>
<path style="fill:#EFEFEF;" d="M400.959,167.454h-20.068c-1.84,0-3.345-1.505-3.345-3.345v-20.068c0-1.84,1.505-3.345,3.345-3.345
	h20.068c1.84,0,3.345,1.505,3.345,3.345v20.068C404.304,165.949,402.799,167.454,400.959,167.454z"/>
<path style="fill:#DDA36F;" d="M259.228,215.164h-20.068c-1.84,0-3.345-1.505-3.345-3.345v-20.068c0-1.84,1.505-3.345,3.345-3.345
	h20.068c1.84,0,3.345,1.505,3.345,3.345v20.068C262.573,213.659,261.068,215.164,259.228,215.164z"/>
<path style="fill:#70B5E8;" d="M306.472,215.164h-20.068c-1.84,0-3.345-1.505-3.345-3.345v-20.068c0-1.84,1.505-3.345,3.345-3.345
	h20.068c1.84,0,3.345,1.505,3.345,3.345v20.068C309.817,213.659,308.312,215.164,306.472,215.164z"/>
<path style="fill:#F9D698;" d="M353.716,215.164h-20.068c-1.84,0-3.345-1.505-3.345-3.345v-20.068c0-1.84,1.505-3.345,3.345-3.345
	h20.068c1.84,0,3.345,1.505,3.345,3.345v20.068C357.06,213.659,355.555,215.164,353.716,215.164z"/>
<path style="fill:#70B5E8;" d="M400.959,215.164h-20.068c-1.84,0-3.345-1.505-3.345-3.345v-20.068c0-1.84,1.505-3.345,3.345-3.345
	h20.068c1.84,0,3.345,1.505,3.345,3.345v20.068C404.304,213.659,402.799,215.164,400.959,215.164z"/>
<path style="fill:#EFEFEF;" d="M259.228,263.494h-20.068c-1.84,0-3.345-1.505-3.345-3.345v-20.068c0-1.84,1.505-3.345,3.345-3.345
	h20.068c1.84,0,3.345,1.505,3.345,3.345v20.068C262.573,261.988,261.068,263.494,259.228,263.494z"/>
<path style="fill:#FFB70D;" d="M306.472,263.494h-20.068c-1.84,0-3.345-1.505-3.345-3.345v-20.068c0-1.84,1.505-3.345,3.345-3.345
	h20.068c1.84,0,3.345,1.505,3.345,3.345v20.068C309.817,261.988,308.312,263.494,306.472,263.494z"/>
<path style="fill:#70B5E8;" d="M353.716,263.494h-20.068c-1.84,0-3.345-1.505-3.345-3.345v-20.068c0-1.84,1.505-3.345,3.345-3.345
	h20.068c1.84,0,3.345,1.505,3.345,3.345v20.068C357.06,261.988,355.555,263.494,353.716,263.494z"/>
<path style="fill:#EFEFEF;" d="M400.959,263.494h-20.068c-1.84,0-3.345-1.505-3.345-3.345v-20.068c0-1.84,1.505-3.345,3.345-3.345
	h20.068c1.84,0,3.345,1.505,3.345,3.345v20.068C404.304,261.988,402.799,263.494,400.959,263.494z"/>
<path style="fill:#92B620;" d="M259.228,395.024h-20.068c-1.84,0-3.345-1.505-3.345-3.345v-20.068c0-1.84,1.505-3.345,3.345-3.345
	h20.068c1.84,0,3.345,1.505,3.345,3.345v20.068C262.573,393.519,261.068,395.024,259.228,395.024z"/>
<path style="fill:#70B5E8;" d="M306.472,395.024h-20.068c-1.84,0-3.345-1.505-3.345-3.345v-20.068c0-1.84,1.505-3.345,3.345-3.345
	h20.068c1.84,0,3.345,1.505,3.345,3.345v20.068C309.817,393.519,308.312,395.024,306.472,395.024z"/>
<path style="fill:#52A5D8;" d="M353.716,395.024h-20.068c-1.84,0-3.345-1.505-3.345-3.345v-20.068c0-1.84,1.505-3.345,3.345-3.345
	h20.068c1.84,0,3.345,1.505,3.345,3.345v20.068C357.06,393.519,355.555,395.024,353.716,395.024z"/>
<path style="fill:#EFEFEF;" d="M400.959,395.024h-20.068c-1.84,0-3.345-1.505-3.345-3.345v-20.068c0-1.84,1.505-3.345,3.345-3.345
	h20.068c1.84,0,3.345,1.505,3.345,3.345v20.068C404.304,393.519,402.799,395.024,400.959,395.024z"/>
<path d="M84.777,47.385c0,11.758,9.565,21.324,21.324,21.324s21.324-9.566,21.324-21.324s-9.565-21.324-21.324-21.324
	C94.342,26.06,84.777,35.627,84.777,47.385z M106.101,41.059c3.488,0,6.326,2.838,6.326,6.326s-2.838,6.326-6.326,6.326
	c-3.488,0-6.326-2.838-6.326-6.326C99.776,43.897,102.614,41.059,106.101,41.059z"/>
<path d="M433.42,409.211V119.013V95.364c0-7.387-5.259-13.57-12.229-15c-0.996-0.204-2.027-0.312-3.082-0.312H221.748h-0.001
	c-3.895,0-7.443,1.474-10.148,3.878c-3.159,2.807-5.164,6.887-5.164,11.434v23.648v290.198c0,8.442,6.869,15.312,15.312,15.312
	h196.36C426.551,424.522,433.42,417.653,433.42,409.211z M221.435,409.211V126.512h135.201c4.142,0,7.499-3.358,7.499-7.499
	s-3.358-7.499-7.499-7.499H221.435V95.364c0-0.172,0.141-0.313,0.313-0.313c204.19,0.146,196.672-0.306,196.672,0.313v16.149
	h-26.787c-4.143,0-7.499,3.358-7.499,7.499s3.357,7.499,7.499,7.499h26.787c-0.147,295.033,0.306,283.011-0.313,283.011H221.748
	C221.576,409.523,221.435,409.383,221.435,409.211z"/>
<path d="M310.007,59.21c0,4.142,3.357,7.499,7.499,7.499h32.461c4.143,0,7.499-3.358,7.499-7.499s-3.357-7.499-7.499-7.499h-32.461
	C313.364,51.71,310.007,55.068,310.007,59.21z"/>
<path d="M287.023,66.137c0.45,0.18,0.92,0.33,1.399,0.43c0.49,0.09,0.98,0.14,1.471,0.14c0.489,0,0.979-0.05,1.46-0.14
	c0.479-0.1,0.949-0.25,1.41-0.43c0.449-0.19,0.88-0.42,1.289-0.69c0.41-0.27,0.801-0.59,1.141-0.93c1.399-1.4,2.189-3.33,2.189-5.31
	c0-1.97-0.79-3.91-2.189-5.3c-0.34-0.35-0.73-0.66-1.141-0.93c-0.409-0.27-0.84-0.51-1.289-0.69c-0.461-0.19-0.931-0.33-1.41-0.43
	c-0.96-0.2-1.96-0.2-2.931,0c-0.479,0.1-0.949,0.24-1.399,0.43c-0.45,0.18-0.891,0.42-1.3,0.69c-0.41,0.27-0.79,0.58-1.141,0.93
	c-1.39,1.39-2.189,3.33-2.189,5.3c0,1.98,0.8,3.91,2.189,5.31c0.351,0.34,0.73,0.66,1.141,0.93
	C286.132,65.717,286.573,65.947,287.023,66.137z"/>
<path d="M320.34,41.039c0.41,0.27,0.841,0.51,1.301,0.69c0.449,0.19,0.92,0.33,1.399,0.43c0.48,0.1,0.98,0.15,1.46,0.15
	c0.49,0,0.99-0.05,1.471-0.15c0.48-0.1,0.949-0.24,1.399-0.43c0.46-0.18,0.891-0.42,1.3-0.69c0.41-0.27,0.79-0.58,1.141-0.93
	c1.4-1.4,2.2-3.33,2.2-5.3c0-0.49-0.051-0.98-0.15-1.47c-0.1-0.48-0.24-0.95-0.43-1.4c-0.191-0.45-0.42-0.89-0.691-1.3
	c-0.27-0.41-0.59-0.79-0.93-1.14c-1.74-1.74-4.33-2.54-6.771-2.05c-0.479,0.1-0.95,0.25-1.399,0.43
	c-0.46,0.19-0.891,0.42-1.301,0.69c-0.409,0.28-0.79,0.59-1.14,0.93c-0.35,0.35-0.66,0.73-0.93,1.14c-0.27,0.41-0.5,0.85-0.69,1.3
	c-0.189,0.45-0.33,0.921-0.43,1.4c-0.101,0.49-0.15,0.98-0.15,1.47c0,1.97,0.81,3.91,2.2,5.3
	C319.55,40.459,319.931,40.769,320.34,41.039z"/>
<path d="M146.183,53.618c2.879-1.895,4.18-5.727,2.761-9.099c-2.292-5.534-9.886-6.281-13.159-1.3
	c-2.025,3.067-1.556,6.984,0.93,9.469C138.744,54.719,142.784,55.861,146.183,53.618z"/>
<path d="M293.599,460.336c0,14.518,11.812,26.329,26.329,26.329c14.518,0,26.329-11.812,26.329-26.329s-11.812-26.329-26.329-26.329
	C305.41,434.007,293.599,445.818,293.599,460.336z M331.258,460.336c0,6.248-5.083,11.33-11.33,11.33s-11.33-5.083-11.33-11.33
	s5.083-11.33,11.33-11.33S331.258,454.088,331.258,460.336z"/>
<path d="M164.351,66.462c4.143,0,7.499-3.358,7.499-7.499V35.808c0-4.142-3.357-7.499-7.499-7.499c-4.143,0-7.499,3.358-7.499,7.499
	v23.155C156.852,63.105,160.21,66.462,164.351,66.462z"/>
<path d="M447.785,407.023c4.143,0,7.499-3.357,7.499-7.499V43.639c0-24.024-19.546-43.571-43.57-43.571H228.143
	C94.59,0.739,98.458-1.435,87.344,2.03C69.619,7.555,56.716,24.118,56.716,43.639c0,26.486,0,408.206,0,424.791
	c0,24.024,19.546,43.57,43.57,43.57c10.708,0,305.382,0,311.428,0c24.024,0,43.57-19.546,43.57-43.57v-33.909
	c0-4.143-3.357-7.499-7.499-7.499c-4.142,0-7.499,3.357-7.499,7.499v33.909c0,15.754-12.817,28.571-28.571,28.571H228.143
	c-15.754,0-28.571-12.817-28.571-28.571v-37.914V81.552V43.639c0-15.754,12.817-28.572,28.571-28.572h183.572
	c15.754,0,28.571,12.817,28.571,28.572v355.885C440.285,403.666,443.643,407.023,447.785,407.023z M100.286,497.001
	c-15.754,0-28.571-12.817-28.571-28.571v-30.415h16.889c4.143,0,7.499-3.357,7.499-7.499c0-4.143-3.357-7.499-7.499-7.499H71.715
	V89.052h112.858v333.965H123.6c-4.142,0-7.499,3.357-7.499,7.499c0,4.143,3.358,7.499,7.499,7.499h60.973
	c0.022,34.804-0.061,30.72,0.103,33.259c0.625,9.642,4.422,18.627,10.598,25.727H100.286z M184.573,43.639v30.414H71.715V43.639
	c0-15.754,12.817-28.572,28.571-28.572h94.988C188.372,22.997,184.573,33.163,184.573,43.639z"/>
<path d="M259.09,360.767h-20.067c-5.98,0-10.845,4.865-10.845,10.844v20.068c0,5.979,4.865,10.844,10.845,10.844h20.067
	c5.98,0,10.844-4.865,10.844-10.844v-20.068C269.935,365.633,265.07,360.767,259.09,360.767z M254.936,387.524h-11.758v-11.758
	h11.758V387.524z"/>
<path d="M306.334,360.767h-20.068c-5.98,0-10.844,4.865-10.844,10.844v20.068c0,5.979,4.865,10.844,10.844,10.844h20.068
	c5.98,0,10.844-4.865,10.844-10.844v-20.068C317.178,365.633,312.314,360.767,306.334,360.767z M302.179,387.524h-11.758v-11.758
	h11.758V387.524z"/>
<path d="M353.578,360.767H333.51c-5.979,0-10.844,4.865-10.844,10.844v20.068c0,5.979,4.865,10.844,10.844,10.844h20.068
	c5.98,0,10.844-4.865,10.844-10.844v-20.068C364.422,365.633,359.557,360.767,353.578,360.767z M349.423,387.524h-11.758v-11.758
	h11.758V387.524z"/>
<path d="M400.821,360.767h-20.068c-5.979,0-10.844,4.865-10.844,10.844v20.068c0,5.979,4.865,10.844,10.844,10.844h20.068
	c5.979,0,10.844-4.865,10.844-10.844v-20.068C411.665,365.633,406.801,360.767,400.821,360.767z M396.666,387.524h-11.758v-11.758
	h11.758V387.524z"/>
<path d="M259.09,133.199h-20.068c-5.979,0-10.844,4.865-10.844,10.844v20.068c0,5.98,4.865,10.844,10.844,10.844h20.068
	c5.98,0,10.844-4.865,10.844-10.844v-20.068C269.935,138.062,265.07,133.199,259.09,133.199z M254.936,159.955h-11.758v-11.758
	h11.758V159.955z"/>
<path d="M306.334,133.199h-20.068c-5.98,0-10.844,4.865-10.844,10.844v20.068c0,5.98,4.865,10.844,10.844,10.844h20.068
	c5.98,0,10.844-4.865,10.844-10.844v-20.068C317.178,138.062,312.314,133.199,306.334,133.199z M302.179,159.955h-11.758v-11.758
	h11.758V159.955z"/>
<path d="M353.578,133.199H333.51c-5.979,0-10.844,4.865-10.844,10.844v20.068c0,5.98,4.865,10.844,10.844,10.844h20.068
	c5.98,0,10.844-4.865,10.844-10.844v-20.068C364.422,138.062,359.557,133.199,353.578,133.199z M349.423,159.955h-11.758v-11.758
	h11.758V159.955z"/>
<path d="M400.821,133.199h-20.068c-5.979,0-10.844,4.865-10.844,10.844v20.068c0,5.98,4.865,10.844,10.844,10.844h20.068
	c5.979,0,10.844-4.865,10.844-10.844v-20.068C411.665,138.062,406.801,133.199,400.821,133.199z M396.666,159.955h-11.758v-11.758
	h11.758V159.955z"/>
<path d="M259.09,180.907h-20.068c-5.979,0-10.844,4.865-10.844,10.844v20.068c0,5.98,4.865,10.844,10.844,10.844h20.068
	c5.98,0,10.844-4.865,10.844-10.844v-20.068C269.935,185.772,265.07,180.907,259.09,180.907z M254.936,207.664h-11.758v-11.758
	h11.758V207.664z"/>
<path d="M306.334,180.907h-20.068c-5.98,0-10.844,4.865-10.844,10.844v20.068c0,5.98,4.865,10.844,10.844,10.844h20.068
	c5.98,0,10.844-4.865,10.844-10.844v-20.068C317.178,185.772,312.314,180.907,306.334,180.907z M302.179,207.664h-11.758v-11.758
	h11.758V207.664z"/>
<path d="M353.578,180.907H333.51c-5.979,0-10.844,4.865-10.844,10.844v20.068c0,5.98,4.865,10.844,10.844,10.844h20.068
	c5.98,0,10.844-4.865,10.844-10.844v-20.068C364.422,185.772,359.557,180.907,353.578,180.907z M349.423,207.664h-11.758v-11.758
	h11.758V207.664z"/>
<path d="M400.821,180.907h-20.068c-5.979,0-10.844,4.865-10.844,10.844v20.068c0,5.98,4.865,10.844,10.844,10.844h20.068
	c5.979,0,10.844-4.865,10.844-10.844v-20.068C411.665,185.772,406.801,180.907,400.821,180.907z M396.666,207.664h-11.758v-11.758
	h11.758V207.664z"/>
<path d="M259.09,229.237h-20.068c-5.979,0-10.844,4.865-10.844,10.844v20.068c0,5.979,4.865,10.844,10.844,10.844h20.068
	c5.98,0,10.844-4.865,10.844-10.844v-20.068C269.935,234.102,265.07,229.237,259.09,229.237z M254.936,255.994h-11.758v-11.758
	h11.758V255.994z"/>
<path d="M306.334,229.237h-20.068c-5.98,0-10.844,4.865-10.844,10.844v20.068c0,5.979,4.865,10.844,10.844,10.844h20.068
	c5.98,0,10.844-4.865,10.844-10.844v-20.068C317.178,234.102,312.314,229.237,306.334,229.237z M302.179,255.994h-11.758v-11.758
	h11.758V255.994z"/>
<path d="M353.578,229.237H333.51c-5.979,0-10.844,4.865-10.844,10.844v20.068c0,5.979,4.865,10.844,10.844,10.844h20.068
	c5.98,0,10.844-4.865,10.844-10.844v-20.068C364.422,234.102,359.557,229.237,353.578,229.237z M349.423,255.994h-11.758v-11.758
	h11.758V255.994z"/>
<path d="M400.821,229.237h-20.068c-5.979,0-10.844,4.865-10.844,10.844v20.068c0,5.979,4.865,10.844,10.844,10.844h20.068
	c5.979,0,10.844-4.865,10.844-10.844v-20.068C411.665,234.102,406.801,229.237,400.821,229.237z M396.666,255.994h-11.758v-11.758
	h11.758V255.994z"/>
<path d="M259.09,277.567h-20.068c-5.979,0-10.844,4.865-10.844,10.844v20.067c0,5.98,4.865,10.845,10.844,10.845h20.068
	c5.98,0,10.844-4.865,10.844-10.845v-20.067C269.935,282.433,265.07,277.567,259.09,277.567z M254.936,304.324h-11.758v-11.758
	h11.758V304.324z"/>
<path d="M306.334,277.567h-20.068c-5.98,0-10.844,4.865-10.844,10.844v20.067c0,5.98,4.865,10.845,10.844,10.845h20.068
	c5.98,0,10.844-4.865,10.844-10.845v-20.067C317.178,282.433,312.314,277.567,306.334,277.567z M302.179,304.324h-11.758v-11.758
	h11.758V304.324z"/>
<g>
</g>
<g>
</g>
<g>
</g>
<g>
</g>
<g>
</g>
<g>
</g>
<g>
</g>
<g>
</g>
<g>
</g>
<g>
</g>
<g>
</g>
<g>
</g>
<g>
</g>
<g>
</g>
<g>
</g>
</svg>
