<svg height="512" viewBox="0 0 512 512" width="512" xmlns="http://www.w3.org/2000/svg"><g id="User_Female_Search" data-name="User Female Search"><g id="Filled"><path d="m192 8a152 152 0 0 1 152 152v120a32 32 0 0 1 -32 32h-240a32 32 0 0 1 -32-32v-120a152 152 0 0 1 152-152z" fill="#525252"/><path d="m100 288a219.988 219.988 0 0 1 -60-8.3v.3a32 32 0 0 0 32 32h240a32 32 0 0 0 32-32v-120a151.286 151.286 0 0 0 -24.223-82.347c-5.054 117.022-101.51 210.347-219.777 210.347z" fill="#3f3f3f"/><path d="m192 416s56-25.072 56-56v-20.445l-3.471-.771a16 16 0 0 1 -12.529-15.619v-43.165h-80v43.165a16 16 0 0 1 -12.529 15.619l-3.471.771v20.445c0 30.928 56 56 56 56z" fill="#fac7b7"/><path d="m312 488h64v-68.661a64 64 0 0 0 -50.116-62.476l-77.884-17.308v20.445c0 30.928-56 56-56 56s-56-25.072-56-56v-20.445l-77.884 17.308a64 64 0 0 0 -50.116 62.476v68.661h64v24h240z" fill="#ce93d8"/><g fill="#ffe7de"><path d="m104 136h176a0 0 0 0 1 0 0v80a88 88 0 0 1 -88 88 88 88 0 0 1 -88-88v-80a0 0 0 0 1 0 0z"/><path d="m8 488h64v24h-64z"/><path d="m376 488h-64v24h64z"/></g><path d="m280 186a144.139 144.139 0 0 1 -164.63 73.285 87.967 87.967 0 0 0 76.63 44.715 88 88 0 0 0 88-88z" fill="#f9d8cd"/><path d="m376 488v-68.661a64 64 0 0 0 -50.116-62.476l-2.373-.527c-39.076 91.516-129.878 155.664-235.678 155.664h224.167v-24z" fill="#c087cc"/><circle cx="136" cy="48" fill="#848484" r="16"/><circle cx="176" cy="64" fill="#848484" r="12"/><circle cx="44" cy="388" fill="#e2b9ea" r="16"/><circle cx="84" cy="404" fill="#e2b9ea" r="12"/><circle cx="128" cy="176" fill="#fff5f2" r="16"/><circle cx="168" cy="192" fill="#fff5f2" r="12"/><path d="m407.917 339.917h48a0 0 0 0 1 0 0v160a24 24 0 0 1 -24 24 24 24 0 0 1 -24-24v-160a0 0 0 0 1 0 0z" fill="#ffd740" transform="matrix(.707 -.707 .707 .707 -178.906 431.917)"/><circle cx="360" cy="352" fill="#f5f5f5" r="88"/><circle cx="360" cy="352" fill="#4baee0" r="56"/><path d="m392 312a63.7 63.7 0 0 1 7.659.466 56 56 0 1 0 -66.476 88.7 63.95 63.95 0 0 1 58.817-89.166z" fill="#0277bd"/><path d="m498.982 465.347a95.534 95.534 0 0 1 -50.982 14.653c-.662 0-1.319-.024-1.978-.037l17.008 17.008a24 24 0 0 0 33.941 0 23.989 23.989 0 0 0 2.011-31.624z" fill="#ffc400"/><circle cx="372" cy="372" fill="#e2e2e2" r="12"/><circle cx="392" cy="344" fill="#e2e2e2" r="8"/></g><g id="Outline"><path d="m376 464a8 8 0 0 0 -8 8v8h-48v-16a8 8 0 0 0 -16 0v40a8 8 0 0 0 16 0v-8h48v8a8 8 0 0 0 16 0v-32a8 8 0 0 0 -8-8z"/><path d="m131.55 28.5a7.984 7.984 0 0 0 3.18-.66 144.041 144.041 0 0 1 201.27 132.16v72a8 8 0 0 0 16 0v-72a159.447 159.447 0 0 0 -27.33-89.47 160.382 160.382 0 0 0 -70.38-57.95 158.89 158.89 0 0 0 -62.27-12.58h-.03a160.91 160.91 0 0 0 -32.97 3.41 158.993 158.993 0 0 0 -30.66 9.75 8 8 0 0 0 3.19 15.34z"/><path d="m103.75 44.23h.01a8 8 0 1 0 -.02-16 8 8 0 0 0 -6.5 12.65 8.009 8.009 0 0 0 6.51 3.35z"/><path d="m72 320h40.48a8 8 0 1 0 0-16h-40.48a24.084 24.084 0 0 1 -24-24v-120a143.68 143.68 0 0 1 37.74-97.19 8 8 0 1 0 -11.8-10.81 159.547 159.547 0 0 0 -41.94 108v120a40.015 40.015 0 0 0 40 40z"/><path d="m288 216v-48a8 8 0 0 0 -16 0v48a80 80 0 0 1 -160 0v-48a8 8 0 0 0 -16 0v48a96.056 96.056 0 0 0 48 83.113v24.052a7.953 7.953 0 0 1 -6.265 7.81l-81.354 18.078a72 72 0 0 0 -56.381 70.286v84.661a8 8 0 0 0 16 0v-8h48v8a8 8 0 0 0 16 0v-48a8 8 0 0 0 -16 0v24h-48v-60.661a55.667 55.667 0 0 1 43.852-54.667l68.148-15.144v10.472c0 15.537 10.534 31.04 31.309 46.078a184.52 184.52 0 0 0 29.422 17.222l3.269 1.465 3.269-1.463c1.405-.63 34.6-15.661 51.129-37.68a8 8 0 1 0 -12.8-9.6c-11.307 15.064-33.358 27-41.633 31.122-15.365-7.584-47.965-27.671-47.965-47.144v-14.224a23.824 23.824 0 0 0 16-22.611v-16.656a95.989 95.989 0 0 0 64 0v16.656c0 6.536 0 17.474 14.265 20.645a8 8 0 1 0 3.47-15.62 9.275 9.275 0 0 1 -1.48-.435 25.388 25.388 0 0 1 -.255-4.59v-24.052a96.056 96.056 0 0 0 48-83.113z"/><path d="m80 104v24a16.019 16.019 0 0 0 16 16h192a16.019 16.019 0 0 0 16-16v-24a8 8 0 0 0 -16 0v24h-192v-24a8 8 0 0 0 -16 0z"/><path d="m199.39 444.94a7.959 7.959 0 0 0 -.74-1.38 7.766 7.766 0 0 0 -.99-1.22 8.075 8.075 0 0 0 -7.22-2.18 7.85 7.85 0 0 0 -1.5.45 7.959 7.959 0 0 0 -1.38.74 8.375 8.375 0 0 0 -1.22.99 7.766 7.766 0 0 0 -.99 1.22 7.959 7.959 0 0 0 -.74 1.38 7.85 7.85 0 0 0 -.45 1.5 7.443 7.443 0 0 0 -.16 1.56 8.05 8.05 0 0 0 2.34 5.66 7.766 7.766 0 0 0 1.22.99 7.959 7.959 0 0 0 1.38.74 7.85 7.85 0 0 0 1.5.45 7.443 7.443 0 0 0 1.56.16 7.989 7.989 0 0 0 8-8 7.443 7.443 0 0 0 -.16-1.56 7.85 7.85 0 0 0 -.45-1.5z"/><path d="m196.44 473.35a7.959 7.959 0 0 0 -1.38-.74 8.077 8.077 0 0 0 -6.12 0 7.959 7.959 0 0 0 -1.38.74 7.766 7.766 0 0 0 -1.22.99 8.05 8.05 0 0 0 -2.34 5.66 7.443 7.443 0 0 0 .16 1.56 7.85 7.85 0 0 0 .45 1.5 7.959 7.959 0 0 0 .74 1.38 7.766 7.766 0 0 0 .99 1.22 8.375 8.375 0 0 0 1.22.99 7.959 7.959 0 0 0 1.38.74 7.85 7.85 0 0 0 1.5.45 7.685 7.685 0 0 0 3.12 0 7.85 7.85 0 0 0 1.5-.45 7.959 7.959 0 0 0 1.38-.74 7.589 7.589 0 0 0 2.21-2.21 7.959 7.959 0 0 0 .74-1.38 7.85 7.85 0 0 0 .45-1.5 7.443 7.443 0 0 0 .16-1.56 8.05 8.05 0 0 0 -2.34-5.66 7.766 7.766 0 0 0 -1.22-.99z"/><path d="m502.627 457.373-58.74-58.741a95.96 95.96 0 1 0 -48.075 42.434l61.561 61.562a32 32 0 0 0 45.254-45.255zm-142.627-25.373a80 80 0 1 1 80-80 80.091 80.091 0 0 1 -80 80zm131.314 59.313a16.019 16.019 0 0 1 -22.628 0l-57.886-57.89a96.752 96.752 0 0 0 23.972-21.283l56.546 56.546a16.018 16.018 0 0 1 -.004 22.627z"/><path d="m320.4 320.4a8 8 0 1 0 -5.65-13.66l-.09.09a8 8 0 0 0 5.74 13.57z"/><path d="m424 352a63.95 63.95 0 0 0 -64-64 64.432 64.432 0 0 0 -13.6 1.45 8 8 0 0 0 -6.12 9.51 8.03 8.03 0 0 0 7.81 6.31 8.114 8.114 0 0 0 1.7-.18 48.367 48.367 0 0 1 10.21-1.09 48 48 0 1 1 -48 48 48.437 48.437 0 0 1 1.09-10.21 8.028 8.028 0 0 0 -6.13-9.52 8 8 0 0 0 -9.51 6.13 64.572 64.572 0 0 0 -1.45 13.6 64 64 0 1 0 128 0z"/></g></g></svg>